<svg xmlns="http://www.w3.org/2000/svg" xmlns:xlink="http://www.w3.org/1999/xlink" version="1.1" id="Layer_1" x="0px" y="0px" viewBox="0 0 129.7 182.5" style="enable-background:new 0 0 129.7 182.5;" xml:space="preserve">
<style type="text/css">
	.st0{fill:url(#SVGID_1_);}
	.st1{fill:#333333;}
	.st2{fill:url(#SVGID_2_);}
	.st3{fill:#444545;}
	.st4{fill:#B5E4FA;}
	.st5{fill:#2A9DC5;}
	.st6{fill:#9AC73C;}
	.st7{fill:#EC9523;}
	.st8{fill:#2D2F7F;}
	.st9{fill:#287EB8;}
	.st10{fill:#238B44;}
	.st11{fill:#ECB31F;}
	.st12{fill:#EE7823;}
	.st13{fill:#293990;}
	.st14{fill:#0377BE;}
	.st15{fill:#317E3D;}
	.st16{fill:#C0CA33;}
	.st17{fill:#F9BF2C;}
	.st18{fill:#F78C1E;}
	.st19{fill:#33429B;}
	.st20{fill:#1B87C9;}
	.st21{fill:#378E43;}
	.st22{fill:#CEDC38;}
	.st23{fill:#FDD837;}
	.st24{fill:#F8981D;}
	.st25{fill:#3F4DA1;}
	.st26{fill:#2D98D4;}
	.st27{fill:#42A047;}
	.st28{fill:#D4E05A;}
	.st29{fill:#FEEA3A;}
	.st30{fill:#FAA629;}
	.st31{fill:#4555A5;}
	.st32{fill:#38A4DD;}
	.st33{fill:#4DAF4E;}
	.st34{fill:#DBE578;}
	.st35{fill:#FFF18B;}
	.st36{fill:#FCB64D;}
	.st37{fill:#5E6BB2;}
	.st38{fill:#44B3E6;}
	.st39{fill:#66BB6A;}
	.st40{fill:#FECC81;}
	.st41{fill:#7B86C2;}
	.st42{fill:#57C1EF;}
	.st43{fill:#E6EB9C;}
	.st44{fill:#EDC71A;}
	.st45{fill:#84D2F6;}
	.st46{fill:#273B8F;}
	.st47{fill:#DAE120;}
</style>

<g>
	<path class="st4" d="M46,39.5v0.2H35.4v-0.2c0-2.9,2.4-5.3,5.3-5.3S46,36.6,46,39.5z"/>
	<path class="st5" d="M40.7,26.6c-2.2,0-4-1.8-4-4s1.8-4,4-4c2.2,0,4,1.8,4,4S43,26.6,40.7,26.6z M40.7,20.4c-1.2,0-2.2,1-2.2,2.2   s1,2.2,2.2,2.2c1.2,0,2.2-1,2.2-2.2S41.9,20.4,40.7,20.4z"/>
	<path class="st6" d="M60.8,49.5c-0.6-1.5-2-2.6-3.8-2.6c-1.7,0-3.2,1.1-3.8,2.6c-0.2,0.4-0.3,0.9-0.3,1.4c0,2.2,1.8,4,4,4   c2.2,0,4-1.8,4-4C61.1,50.4,61,49.9,60.8,49.5z M57.1,53.1c-1.2,0-2.2-1-2.2-2.2c0-0.6,0.2-1.1,0.6-1.4c0.4-0.4,1-0.7,1.6-0.7   c0.6,0,1.2,0.3,1.6,0.7c0.3,0.4,0.6,0.9,0.6,1.4C59.2,52.1,58.2,53.1,57.1,53.1z"/>
	<path class="st7" d="M105.9,42.8c-2.2,0-4,1.8-4,4c0,1,0.4,2,1,2.7c0.7,0.8,1.8,1.4,3,1.4c1.2,0,2.3-0.5,3-1.4c0.6-0.7,1-1.6,1-2.7   C109.9,44.6,108.1,42.8,105.9,42.8z M105.9,44.7c1.2,0,2.2,1,2.2,2.2c0,1.2-1,2.2-2.2,2.2c-1.2,0-2.2-1-2.2-2.2   C103.7,45.6,104.7,44.7,105.9,44.7z"/>
	<path class="st8" d="M29.7,107.8v4.4c0,1.5-0.6,2.8-1.6,3.7c-1,1-2.3,1.5-3.7,1.5c-2.9,0-5.3-2.4-5.3-5.3v-4.4H29.7z"/>
	<path class="st9" d="M46,107.8v4.4c0,1.5-0.6,2.8-1.5,3.7c-1,1-2.3,1.5-3.7,1.5c-2.9,0-5.3-2.4-5.3-5.3v-4.4H46z"/>
	<path class="st10" d="M62.3,107.8v4.4c0,1.5-0.6,2.8-1.6,3.7c-1,1-2.3,1.5-3.7,1.5c-2.9,0-5.3-2.4-5.3-5.3v-4.4H62.3z"/>
	<path class="st6" d="M78.7,107.8v4.4c0,1.5-0.6,2.8-1.5,3.7c-1,1-2.3,1.5-3.7,1.5c-2.9,0-5.3-2.4-5.3-5.3v-4.4H78.7z"/>
	<path class="st11" d="M95,107.8v4.4c0,1.5-0.6,2.8-1.6,3.7c-1,1-2.3,1.5-3.7,1.5c-2.9,0-5.3-2.4-5.3-5.3v-4.4H95z"/>
	<path class="st12" d="M111.3,107.8v4.4c0,1.5-0.6,2.8-1.5,3.7c-1,1-2.3,1.5-3.7,1.5c-2.9,0-5.3-2.4-5.3-5.3v-4.4H111.3z"/>
	<rect x="19.1" y="98.1" class="st13" width="10.6" height="9.7"/>
	<rect x="35.4" y="98.1" class="st14" width="10.6" height="9.7"/>
	<rect x="51.8" y="98.1" class="st15" width="10.6" height="9.7"/>
	<rect x="68.1" y="98.1" class="st16" width="10.6" height="9.7"/>
	<rect x="84.4" y="98.1" class="st17" width="10.6" height="9.7"/>
	<rect x="100.7" y="98.1" class="st18" width="10.6" height="9.7"/>
	<rect x="19.1" y="88.4" class="st19" width="10.6" height="9.7"/>
	<rect x="35.4" y="88.4" class="st20" width="10.6" height="9.7"/>
	<rect x="51.8" y="88.4" class="st21" width="10.6" height="9.7"/>
	<rect x="68.1" y="88.4" class="st22" width="10.6" height="9.7"/>
	<rect x="84.4" y="88.4" class="st23" width="10.6" height="9.7"/>
	<rect x="100.7" y="88.4" class="st24" width="10.6" height="9.7"/>
	<rect x="19.1" y="78.7" class="st25" width="10.6" height="9.7"/>
	<rect x="35.4" y="78.7" class="st26" width="10.6" height="9.7"/>
	<rect x="51.8" y="78.7" class="st27" width="10.6" height="9.7"/>
	<rect x="68.1" y="78.7" class="st28" width="10.6" height="9.7"/>
	<path class="st29" d="M95,82.6v5.7H84.4v-5.7c0-1.6,0.7-3,1.8-4h7C94.3,79.6,95,81,95,82.6z"/>
	<rect x="100.7" y="78.7" class="st30" width="10.6" height="9.7"/>
	<rect x="19.1" y="68.9" class="st31" width="10.6" height="9.7"/>
	<rect x="35.4" y="68.9" class="st32" width="10.6" height="9.7"/>
	<path class="st33" d="M62.3,73v5.6H51.8V73c0-1.7,0.8-3.1,1.9-4.1h6.7C61.6,69.9,62.3,71.4,62.3,73z"/>
	<rect x="68.1" y="68.9" class="st34" width="10.6" height="9.7"/>
	<path class="st35" d="M93.2,78.7h-7c0.9-0.8,2.2-1.3,3.5-1.3C91,77.3,92.2,77.8,93.2,78.7z"/>
	<path class="st36" d="M111.3,69.3v9.3h-10.6v-9.3c0-0.1,0-0.3,0-0.4h10.6C111.3,69.1,111.3,69.2,111.3,69.3z"/>
	<rect x="19.1" y="59.2" class="st37" width="10.6" height="9.7"/>
	<rect x="35.4" y="59.2" class="st38" width="10.6" height="9.7"/>
	<path class="st39" d="M60.4,68.9h-6.7c0.9-0.8,2.1-1.2,3.4-1.2C58.3,67.7,59.5,68.2,60.4,68.9z"/>
	<path class="st40" d="M111.3,68.9h-10.6c0.2-2.7,2.5-4.9,5.3-4.9C108.8,64,111.1,66.2,111.3,68.9z"/>
	<path class="st41" d="M29.7,56.6v2.6H19.1v-2.6c0-2.9,2.4-5.3,5.3-5.3C27.3,51.3,29.7,53.7,29.7,56.6z"/>
	<rect x="35.4" y="49.5" class="st42" width="10.6" height="9.7"/>
	<path class="st43" d="M74.2,59.2c-0.3,0-0.5-0.1-0.8-0.1s-0.6,0-0.8,0.1c-2.5,0.4-4.5,2.6-4.5,5.2v4.5h10.6v-4.5   C78.7,61.8,76.7,59.6,74.2,59.2z"/>
	<path class="st44" d="M89.5,53.5c-2.2,0-4,1.8-4,4c0,0.6,0.1,1.2,0.4,1.7c0.6,1.4,2,2.3,3.6,2.3c1.6,0,3-0.9,3.6-2.3   c0.3-0.5,0.4-1.1,0.4-1.7C93.5,55.3,91.7,53.5,89.5,53.5z M89.5,59.6c-0.5,0-0.9-0.2-1.3-0.4c-0.5-0.4-0.9-1-0.9-1.7   c0-1.2,1-2.2,2.2-2.2c1.2,0,2.2,1,2.2,2.2c0,0.7-0.3,1.3-0.9,1.7C90.4,59.5,90,59.6,89.5,59.6z"/>
	<rect x="35.4" y="39.8" class="st45" width="10.6" height="9.7"/>
	<path class="st46" d="M24.4,32.3c-2.2,0-4,1.8-4,4c0,1.5,0.8,2.8,2,3.5c0.6,0.4,1.3,0.6,2.1,0.6s1.5-0.2,2.1-0.6c1.2-0.7,2-2,2-3.5   C28.5,34.1,26.6,32.3,24.4,32.3z M24.4,38.5c-1.2,0-2.2-1-2.2-2.2c0-1.2,1-2.2,2.2-2.2c1.2,0,2.2,1,2.2,2.2   C26.6,37.5,25.6,38.5,24.4,38.5z"/>
	<path class="st47" d="M76.1,39.8c-0.7-0.7-1.7-1.1-2.8-1.1s-2,0.4-2.8,1.1c-0.8,0.7-1.3,1.8-1.3,2.9c0,2.2,1.8,4,4,4s4-1.8,4-4   C77.4,41.5,76.9,40.5,76.1,39.8z M73.4,44.9c-1.2,0-2.2-1-2.2-2.2c0-1.2,1-2.2,2.2-2.2c1.2,0,2.2,1,2.2,2.2   C75.5,43.9,74.6,44.9,73.4,44.9z"/>
</g>
</svg>