<?xml version="1.0" encoding="utf-8"?>
<!-- Generator: Adobe Illustrator 23.0.4, SVG Export Plug-In . SVG Version: 6.00 Build 0)  -->
<svg version="1.1" id="Layer_1" xmlns="http://www.w3.org/2000/svg" xmlns:xlink="http://www.w3.org/1999/xlink" x="0px" y="0px"
	 viewBox="0 0 500 182.5" style="enable-background:new 0 0 500 182.5;" xml:space="preserve">
<style type="text/css">
	.st0{fill:url(#SVGID_1_);}
	.st1{fill:#333333;}
	.st2{fill:url(#SVGID_2_);}
	.st3{fill:#444545;}
	.st4{fill:#B5E4FA;}
	.st5{fill:#2A9DC5;}
	.st6{fill:#9AC73C;}
	.st7{fill:#EC9523;}
	.st8{fill:#2D2F7F;}
	.st9{fill:#287EB8;}
	.st10{fill:#238B44;}
	.st11{fill:#ECB31F;}
	.st12{fill:#EE7823;}
	.st13{fill:#293990;}
	.st14{fill:#0377BE;}
	.st15{fill:#317E3D;}
	.st16{fill:#C0CA33;}
	.st17{fill:#F9BF2C;}
	.st18{fill:#F78C1E;}
	.st19{fill:#33429B;}
	.st20{fill:#1B87C9;}
	.st21{fill:#378E43;}
	.st22{fill:#CEDC38;}
	.st23{fill:#FDD837;}
	.st24{fill:#F8981D;}
	.st25{fill:#3F4DA1;}
	.st26{fill:#2D98D4;}
	.st27{fill:#42A047;}
	.st28{fill:#D4E05A;}
	.st29{fill:#FEEA3A;}
	.st30{fill:#FAA629;}
	.st31{fill:#4555A5;}
	.st32{fill:#38A4DD;}
	.st33{fill:#4DAF4E;}
	.st34{fill:#DBE578;}
	.st35{fill:#FFF18B;}
	.st36{fill:#FCB64D;}
	.st37{fill:#5E6BB2;}
	.st38{fill:#44B3E6;}
	.st39{fill:#66BB6A;}
	.st40{fill:#FECC81;}
	.st41{fill:#7B86C2;}
	.st42{fill:#57C1EF;}
	.st43{fill:#E6EB9C;}
	.st44{fill:#EDC71A;}
	.st45{fill:#84D2F6;}
	.st46{fill:#273B8F;}
	.st47{fill:#DAE120;}
</style>
<g>
	<g>
		
			<linearGradient id="SVGID_1_" gradientUnits="userSpaceOnUse" x1="223.8713" y1="141.2911" x2="224.2137" y2="59.109" gradientTransform="matrix(1 0 0 -1 0 184)">
			<stop  offset="0" style="stop-color:#29AAE1"/>
			<stop  offset="0.2578" style="stop-color:#28A8E0"/>
			<stop  offset="0.421" style="stop-color:#26A2DC"/>
			<stop  offset="0.558" style="stop-color:#2399D5"/>
			<stop  offset="0.6804" style="stop-color:#208DCB"/>
			<stop  offset="0.7932" style="stop-color:#1B7DBF"/>
			<stop  offset="0.8974" style="stop-color:#146CB2"/>
			<stop  offset="0.9958" style="stop-color:#0C59A5"/>
			<stop  offset="1" style="stop-color:#0B58A4"/>
			<stop  offset="1" style="stop-color:#1978BB"/>
		</linearGradient>
		<path class="st0" d="M186.1,133.6l26.4-37.7l-25.3-35.5h23.6l13,20.1L234,65.3c2.1-3.1,5.6-4.9,9.3-4.9h16.8l-24.8,34.7l27.1,38.5
			h-23.8l-14.9-22.7l-15,22.7H186.1z"/>
		<path class="st1" d="M305,133.6l-36.1-101H291l25.6,74.8l22.2-67.1c1.5-4.6,5.8-7.7,10.6-7.7h13.5l-36.2,101H305z"/>
		<path class="st1" d="M375.9,50.5V32.6h8.1c6.2,0,11.2,5,11.2,11.2v6.7H375.9z M375.9,133.6V60.4h8.1c6.2,0,11.2,5,11.2,11.2v62
			H375.9z"/>
		<path class="st1" d="M412.5,133.6v-15.1L439.9,87c4.5-5.1,7.8-8.8,10-11c-2.3,0.1-5.2,0.2-8.9,0.3l-14.6,0.1
			c-6.2,0-11.3-5-11.3-11.2v-4.8h60.5v13.7l-28,32.2l-9.9,10.7c5.4-0.3,8.7-0.5,10-0.5h30v17h-65.2V133.6z"/>
		
			<linearGradient id="SVGID_2_" gradientUnits="userSpaceOnUse" x1="222.8752" y1="140.9436" x2="223.2155" y2="59.2733" gradientTransform="matrix(1 0 0 -1 0 184)">
			<stop  offset="0" style="stop-color:#29AAE1"/>
			<stop  offset="0.1275" style="stop-color:#27A4DD"/>
			<stop  offset="0.3347" style="stop-color:#2295D1"/>
			<stop  offset="0.5958" style="stop-color:#1C7EC0"/>
			<stop  offset="0.8978" style="stop-color:#1062AB"/>
			<stop  offset="1" style="stop-color:#0B58A4"/>
			<stop  offset="1" style="stop-color:#1978BB"/>
		</linearGradient>
		<path class="st2" d="M186.1,133.6l26.4-37.7l11.3-15.4L234,65.3c2.1-3.1,5.6-4.9,9.3-4.9h16.8l-24.8,34.7l-22.9,0.8l11.3,15
			l-15,22.7H186.1z"/>
	</g>
	<g>
		<path class="st3" d="M196.1,162.7l-1.3-3.7h-5.1l-1.3,3.7h-2.3l5-13.4h2.4l5,13.4H196.1z M194.2,157.1l-1.2-3.6
			c-0.1-0.2-0.2-0.6-0.4-1.1s-0.3-0.9-0.3-1.1c-0.2,0.7-0.4,1.6-0.7,2.5l-1.2,3.5h3.8V157.1z"/>
		<path class="st3" d="M212,155.9c0,2.2-0.6,3.9-1.8,5c-1.2,1.2-3,1.7-5.3,1.7h-3.7v-13.3h4.1c2.1,0,3.8,0.6,5,1.7
			S212,153.8,212,155.9z M209.7,156c0-3.2-1.5-4.8-4.5-4.8h-1.9v9.7h1.6C208.1,160.9,209.7,159.2,209.7,156z"/>
		<path class="st3" d="M223.5,149.3h2.3l-4.7,13.3h-2.3l-4.7-13.3h2.2l2.8,8.3c0.1,0.4,0.3,0.9,0.5,1.5s0.3,1.1,0.3,1.4
			c0.1-0.5,0.2-1,0.4-1.6s0.3-1.1,0.4-1.3L223.5,149.3z"/>
		<path class="st3" d="M236.7,162.7l-1.3-3.7h-5.1l-1.3,3.7h-2.3l5-13.4h2.4l5,13.4H236.7z M234.8,157.1l-1.2-3.6
			c-0.1-0.2-0.2-0.6-0.4-1.1s-0.3-0.9-0.3-1.1c-0.2,0.7-0.4,1.6-0.7,2.5l-1.2,3.5h3.8V157.1z"/>
		<path class="st3" d="M252.9,162.7h-2.7l-6.6-10.6h-0.1v0.6c0.1,1.1,0.1,2.2,0.1,3.1v6.9h-2v-13.3h2.6l6.5,10.6h0.1
			c0-0.1,0-0.6-0.1-1.5c0-0.9-0.1-1.6-0.1-2.1v-7h2v13.3H252.9z"/>
		<path class="st3" d="M263.1,151c-1.3,0-2.2,0.4-3,1.3c-0.7,0.9-1.1,2.1-1.1,3.7c0,1.6,0.3,2.9,1,3.7s1.7,1.3,3,1.3
			c0.6,0,1.1-0.1,1.6-0.2c0.5-0.1,1.1-0.3,1.7-0.4v1.9c-1,0.4-2.2,0.6-3.6,0.6c-2,0-3.5-0.6-4.5-1.8s-1.6-2.9-1.6-5.1
			c0-1.4,0.3-2.6,0.8-3.6s1.2-1.8,2.2-2.4c1-0.6,2.1-0.8,3.4-0.8c1.4,0,2.6,0.3,3.8,0.9l-0.8,1.8c-0.5-0.2-0.9-0.4-1.4-0.6
			C264.2,151.1,263.7,151,263.1,151z"/>
		<path class="st3" d="M277.8,162.7h-7.5v-13.3h7.5v1.8h-5.4v3.6h5v1.8h-5v4.2h5.4V162.7z"/>
		<path class="st3" d="M292.5,155.9c0,2.2-0.6,3.9-1.8,5c-1.2,1.2-3,1.7-5.3,1.7h-3.7v-13.3h4.1c2.1,0,3.8,0.6,5,1.7
			S292.5,153.8,292.5,155.9z M290.2,156c0-3.2-1.5-4.8-4.5-4.8h-1.9v9.7h1.6C288.6,160.9,290.2,159.2,290.2,156z"/>
		<path class="st3" d="M313.7,151c-1.3,0-2.2,0.4-3,1.3c-0.7,0.9-1.1,2.1-1.1,3.7c0,1.6,0.3,2.9,1,3.7s1.7,1.3,3,1.3
			c0.6,0,1.1-0.1,1.6-0.2c0.5-0.1,1.1-0.3,1.7-0.4v1.9c-1,0.4-2.2,0.6-3.6,0.6c-2,0-3.5-0.6-4.5-1.8s-1.6-2.9-1.6-5.1
			c0-1.4,0.3-2.6,0.8-3.6s1.2-1.8,2.2-2.4c1-0.6,2.1-0.8,3.4-0.8c1.4,0,2.6,0.3,3.8,0.9l-0.8,1.8c-0.5-0.2-0.9-0.4-1.4-0.6
			C314.8,151.1,314.3,151,313.7,151z"/>
		<path class="st3" d="M331.3,149.3v8.6c0,1-0.2,1.8-0.6,2.6c-0.4,0.7-1,1.3-1.8,1.7s-1.8,0.6-2.9,0.6c-1.7,0-2.9-0.4-3.9-1.3
			c-0.9-0.9-1.4-2.1-1.4-3.6v-8.6h2.2v8.4c0,1.1,0.3,1.9,0.8,2.4s1.3,0.8,2.4,0.8c2.1,0,3.1-1.1,3.1-3.2v-8.4H331.3z"/>
		<path class="st3" d="M343.4,159.1c0,1.2-0.4,2.1-1.3,2.8s-2,1-3.5,1s-2.7-0.2-3.7-0.7v-2.1c0.6,0.3,1.3,0.5,1.9,0.7
			c0.7,0.2,1.3,0.2,1.9,0.2c0.9,0,1.5-0.2,1.9-0.5s0.6-0.8,0.6-1.3s-0.2-0.9-0.6-1.3c-0.4-0.3-1.2-0.8-2.3-1.2
			c-1.2-0.5-2.1-1.1-2.6-1.7c-0.5-0.6-0.7-1.4-0.7-2.3c0-1.1,0.4-2,1.2-2.6c0.8-0.6,1.9-1,3.2-1c1.3,0,2.5,0.3,3.8,0.8l-0.7,1.8
			c-1.2-0.5-2.2-0.7-3.2-0.7c-0.7,0-1.2,0.2-1.6,0.5s-0.5,0.7-0.5,1.2c0,0.3,0.1,0.6,0.2,0.9c0.1,0.2,0.4,0.5,0.7,0.7
			c0.3,0.2,0.9,0.5,1.8,0.9c1,0.4,1.7,0.8,2.2,1.1c0.5,0.4,0.8,0.8,1,1.2C343.3,157.9,343.4,158.5,343.4,159.1z"/>
		<path class="st3" d="M351.6,162.7h-2.2v-11.5h-3.9v-1.9h10v1.9h-3.9V162.7z"/>
		<path class="st3" d="M370.4,156c0,2.2-0.5,3.9-1.6,5.1c-1.1,1.2-2.6,1.8-4.6,1.8s-3.6-0.6-4.6-1.8c-1.1-1.2-1.6-2.9-1.6-5.1
			s0.5-3.9,1.6-5.1c1.1-1.2,2.6-1.8,4.6-1.8s3.5,0.6,4.6,1.8C369.9,152.1,370.4,153.8,370.4,156z M360.2,156c0,1.6,0.3,2.9,1,3.7
			s1.6,1.3,2.9,1.3s2.3-0.4,2.9-1.3c0.7-0.8,1-2.1,1-3.7c0-1.6-0.3-2.9-1-3.7s-1.6-1.3-2.9-1.3s-2.3,0.4-3,1.3
			C360.6,153.1,360.2,154.4,360.2,156z"/>
		<path class="st3" d="M380,162.7l-3.9-11.1H376c0.1,1.7,0.2,3.2,0.2,4.7v6.5h-2v-13.3h3.1L381,160h0.1l3.8-10.6h3.1v13.3h-2.1v-6.6
			c0-0.7,0-1.5,0.1-2.6c0-1.1,0.1-1.7,0.1-1.9H386l-4,11.1H380z"/>
		<path class="st3" d="M411.8,149.3h2.3l-4.7,13.3h-2.3l-4.7-13.3h2.2l2.8,8.3c0.1,0.4,0.3,0.9,0.5,1.5s0.3,1.1,0.3,1.4
			c0.1-0.5,0.2-1,0.4-1.6c0.2-0.6,0.3-1.1,0.4-1.3L411.8,149.3z"/>
		<path class="st3" d="M416.8,162.7v-13.3h2.2v13.3H416.8z"/>
		<path class="st3" d="M431.2,159.1c0,1.2-0.4,2.1-1.3,2.8s-2,1-3.5,1s-2.7-0.2-3.7-0.7v-2.1c0.6,0.3,1.3,0.5,1.9,0.7
			c0.7,0.2,1.3,0.2,1.9,0.2c0.9,0,1.5-0.2,1.9-0.5s0.6-0.8,0.6-1.3s-0.2-0.9-0.6-1.3c-0.4-0.3-1.2-0.8-2.3-1.2
			c-1.2-0.5-2.1-1.1-2.6-1.7c-0.5-0.6-0.7-1.4-0.7-2.3c0-1.1,0.4-2,1.2-2.6c0.8-0.6,1.9-1,3.2-1c1.3,0,2.5,0.3,3.8,0.8l-0.7,1.8
			c-1.2-0.5-2.2-0.7-3.2-0.7c-0.7,0-1.2,0.2-1.6,0.5s-0.5,0.7-0.5,1.2c0,0.3,0.1,0.6,0.2,0.9c0.1,0.2,0.4,0.5,0.7,0.7
			c0.3,0.2,0.9,0.5,1.8,0.9c1,0.4,1.7,0.8,2.2,1.1c0.5,0.4,0.8,0.8,1,1.2C431.1,157.9,431.2,158.5,431.2,159.1z"/>
		<path class="st3" d="M445.2,149.3v8.6c0,1-0.2,1.8-0.6,2.6c-0.4,0.7-1,1.3-1.8,1.7s-1.8,0.6-2.9,0.6c-1.7,0-2.9-0.4-3.9-1.3
			c-0.9-0.9-1.4-2.1-1.4-3.6v-8.6h2.2v8.4c0,1.1,0.3,1.9,0.8,2.4s1.3,0.8,2.4,0.8c2.1,0,3.1-1.1,3.1-3.2v-8.4H445.2z"/>
		<path class="st3" d="M457.9,162.7l-1.3-3.7h-5.1l-1.3,3.7h-2.3l5-13.4h2.4l5,13.4H457.9z M456,157.1l-1.2-3.6
			c-0.1-0.2-0.2-0.6-0.4-1.1c-0.2-0.5-0.3-0.9-0.3-1.1c-0.2,0.7-0.4,1.6-0.7,2.5l-1.2,3.5h3.8V157.1z"/>
		<path class="st3" d="M462.9,162.7v-13.3h2.2v11.5h5.6v1.9L462.9,162.7L462.9,162.7z"/>
		<path class="st3" d="M481.7,159.1c0,1.2-0.4,2.1-1.3,2.8s-2,1-3.5,1s-2.7-0.2-3.7-0.7v-2.1c0.6,0.3,1.3,0.5,1.9,0.7
			c0.7,0.2,1.3,0.2,1.9,0.2c0.9,0,1.5-0.2,1.9-0.5s0.6-0.8,0.6-1.3s-0.2-0.9-0.6-1.3c-0.4-0.3-1.2-0.8-2.3-1.2
			c-1.2-0.5-2.1-1.1-2.6-1.7c-0.5-0.6-0.7-1.4-0.7-2.3c0-1.1,0.4-2,1.2-2.6c0.8-0.6,1.9-1,3.2-1c1.3,0,2.5,0.3,3.8,0.8l-0.7,1.8
			c-1.2-0.5-2.2-0.7-3.2-0.7c-0.7,0-1.2,0.2-1.6,0.5s-0.5,0.7-0.5,1.2c0,0.3,0.1,0.6,0.2,0.9c0.1,0.2,0.4,0.5,0.7,0.7
			c0.3,0.2,0.9,0.5,1.8,0.9c1,0.4,1.7,0.8,2.2,1.1c0.5,0.4,0.8,0.8,1,1.2C481.6,157.9,481.7,158.5,481.7,159.1z"/>
	</g>
</g>
<g>
	<path class="st4" d="M57.4,49.5v0.3H42v-0.3c0-4.3,3.4-7.7,7.7-7.7S57.4,45.3,57.4,49.5z"/>
	<path class="st5" d="M49.7,30.7c-3.2,0-5.9-2.6-5.9-5.9s2.6-5.9,5.9-5.9s5.9,2.6,5.9,5.9S52.9,30.7,49.7,30.7z M49.7,21.7
		c-1.7,0-3.1,1.4-3.1,3.1s1.4,3.1,3.1,3.1s3.1-1.4,3.1-3.1S51.4,21.7,49.7,21.7z"/>
	<path class="st6" d="M78.9,64c-0.8-2.2-3-3.8-5.5-3.8s-4.6,1.6-5.5,3.8c-0.3,0.7-0.4,1.4-0.4,2.1c0,3.2,2.6,5.9,5.9,5.9
		c3.2,0,5.9-2.6,5.9-5.9C79.3,65.4,79.1,64.6,78.9,64z M73.4,69.2c-1.7,0-3.1-1.4-3.1-3.1c0-0.8,0.3-1.5,0.8-2.1
		c0.6-0.6,1.4-1,2.3-1s1.7,0.4,2.3,1c0.5,0.6,0.8,1.3,0.8,2.1C76.5,67.8,75.1,69.2,73.4,69.2z"/>
	<path class="st7" d="M144.4,54.3c-3.2,0-5.9,2.6-5.9,5.9c0,1.5,0.6,2.9,1.5,3.9c1.1,1.2,2.6,2,4.4,2c1.7,0,3.3-0.8,4.4-2
		c0.9-1,1.5-2.4,1.5-3.9C150.3,56.9,147.6,54.3,144.4,54.3z M144.4,57c1.7,0,3.1,1.4,3.1,3.1c0,1.7-1.4,3.1-3.1,3.1
		c-1.7,0-3.1-1.4-3.1-3.1C141.3,58.4,142.7,57,144.4,57z"/>
	<path class="st8" d="M33.7,148.8v6.4c0,2.1-0.9,4-2.3,5.4c-1.4,1.4-3.3,2.3-5.4,2.3c-4.2,0-7.7-3.4-7.7-7.7v-6.4H33.7z"/>
	<path class="st9" d="M57.4,148.8v6.4c0,2.1-0.9,4-2.3,5.4c-1.4,1.4-3.3,2.3-5.4,2.3c-4.3,0-7.7-3.4-7.7-7.7v-6.4H57.4z"/>
	<path class="st10" d="M81.1,148.8v6.4c0,2.1-0.9,4-2.3,5.4s-3.3,2.3-5.4,2.3c-4.3,0-7.7-3.4-7.7-7.7v-6.4H81.1z"/>
	<path class="st6" d="M104.8,148.8v6.4c0,2.1-0.9,4-2.3,5.4s-3.3,2.3-5.4,2.3c-4.3,0-7.7-3.4-7.7-7.7v-6.4H104.8z"/>
	<path class="st11" d="M128.5,148.8v6.4c0,2.1-0.9,4-2.3,5.4s-3.3,2.3-5.4,2.3c-4.3,0-7.7-3.4-7.7-7.7v-6.4H128.5z"/>
	<path class="st12" d="M152.2,148.8v6.4c0,2.1-0.9,4-2.3,5.4c-1.4,1.4-3.3,2.3-5.4,2.3c-4.3,0-7.7-3.4-7.7-7.7v-6.4H152.2z"/>
	<rect x="18.3" y="134.7" class="st13" width="15.4" height="14.1"/>
	<rect x="42" y="134.7" class="st14" width="15.4" height="14.1"/>
	<rect x="65.7" y="134.7" class="st15" width="15.4" height="14.1"/>
	<rect x="89.4" y="134.7" class="st16" width="15.4" height="14.1"/>
	<rect x="113.1" y="134.7" class="st17" width="15.4" height="14.1"/>
	<rect x="136.8" y="134.7" class="st18" width="15.4" height="14.1"/>
	<rect x="18.3" y="120.5" class="st19" width="15.4" height="14.1"/>
	<rect x="42" y="120.5" class="st20" width="15.4" height="14.1"/>
	<rect x="65.7" y="120.5" class="st21" width="15.4" height="14.1"/>
	<rect x="89.4" y="120.5" class="st22" width="15.4" height="14.1"/>
	<rect x="113.1" y="120.5" class="st23" width="15.4" height="14.1"/>
	<rect x="136.8" y="120.5" class="st24" width="15.4" height="14.1"/>
	<rect x="18.3" y="106.4" class="st25" width="15.4" height="14.1"/>
	<rect x="42" y="106.4" class="st26" width="15.4" height="14.1"/>
	<rect x="65.7" y="106.4" class="st27" width="15.4" height="14.1"/>
	<rect x="89.4" y="106.4" class="st28" width="15.4" height="14.1"/>
	<path class="st29" d="M128.5,112.2v8.4h-15.4v-8.4c0-2.3,1-4.4,2.6-5.8h10.2C127.5,107.8,128.5,109.9,128.5,112.2z"/>
	<rect x="136.8" y="106.4" class="st30" width="15.4" height="14.1"/>
	<rect x="18.3" y="92.3" class="st31" width="15.4" height="14.1"/>
	<rect x="42" y="92.3" class="st32" width="15.4" height="14.1"/>
	<path class="st33" d="M81.1,98.2v8.2H65.7v-8.2c0-2.4,1.1-4.5,2.8-5.9h9.8C80,93.7,81.1,95.8,81.1,98.2z"/>
	<rect x="89.4" y="92.3" class="st34" width="15.4" height="14.1"/>
	<path class="st35" d="M125.9,106.4h-10.2c1.4-1.2,3.1-1.9,5.1-1.9S124.6,105.2,125.9,106.4z"/>
	<path class="st36" d="M152.2,92.8v13.5h-15.4V92.8c0-0.2,0-0.4,0-0.6h15.3C152.2,92.5,152.2,92.6,152.2,92.8z"/>
	<rect x="18.3" y="78.1" class="st37" width="15.4" height="14.1"/>
	<rect x="42" y="78.1" class="st38" width="15.4" height="14.1"/>
	<path class="st39" d="M78.3,92.3h-9.8c1.3-1.1,3-1.8,4.9-1.8C75.2,90.5,76.9,91.2,78.3,92.3z"/>
	<path class="st40" d="M152.2,92.3h-15.3c0.3-4,3.6-7.1,7.7-7.1C148.6,85.1,151.9,88.3,152.2,92.3z"/>
	<path class="st41" d="M33.7,74.3v3.8H18.3v-3.8c0-4.3,3.4-7.7,7.7-7.7C30.2,66.6,33.7,70,33.7,74.3z"/>
	<rect x="42" y="64" class="st42" width="15.4" height="14.1"/>
	<path class="st43" d="M98.3,78.1C97.9,78,97.5,78,97.1,78c-0.4,0-0.8,0-1.2,0.1c-3.7,0.6-6.5,3.8-6.5,7.6v6.5h15.4v-6.5
		C104.8,81.9,102,78.7,98.3,78.1z"/>
	<path class="st44" d="M120.6,69.8c-3.2,0-5.9,2.6-5.9,5.9c0,0.9,0.2,1.7,0.6,2.5c0.9,2,3,3.4,5.3,3.4s4.4-1.4,5.3-3.4
		c0.4-0.8,0.6-1.6,0.6-2.5C126.4,72.4,123.8,69.8,120.6,69.8z M120.6,78.8c-0.7,0-1.3-0.2-1.9-0.6c-0.8-0.6-1.3-1.5-1.3-2.5
		c0-1.7,1.4-3.1,3.1-3.1s3.1,1.4,3.1,3.1c0,1-0.5,1.9-1.3,2.5C121.9,78.5,121.3,78.8,120.6,78.8z"/>
	<rect x="42" y="49.9" class="st45" width="15.4" height="14.1"/>
	<path class="st46" d="M26,39c-3.2,0-5.9,2.6-5.9,5.9c0,2.1,1.2,4,2.9,5c0.9,0.5,1.9,0.8,3,0.8s2.1-0.3,3-0.8c1.7-1,2.9-2.9,2.9-5
		C31.8,41.6,29.2,39,26,39z M26,48c-1.7,0-3.1-1.4-3.1-3.1c0-1.7,1.4-3.1,3.1-3.1s3.1,1.4,3.1,3.1S27.7,48,26,48z"/>
	<path class="st47" d="M101.1,49.9c-1-1-2.5-1.6-4-1.6s-3,0.6-4,1.6c-1.1,1.1-1.8,2.6-1.8,4.3c0,3.2,2.6,5.9,5.9,5.9
		s5.9-2.6,5.9-5.9C103,52.4,102.3,50.9,101.1,49.9z M97.1,57.3c-1.7,0-3.1-1.4-3.1-3.1c0-1.7,1.4-3.1,3.1-3.1s3.1,1.4,3.1,3.1
		C100.2,55.9,98.8,57.3,97.1,57.3z"/>
</g>
</svg>
